<svg xmlns="http://www.w3.org/2000/svg" viewBox="0 0 1104 1184" width="1104" height="1184">
<rect width="1104" height="1184" fill="#241E29"/>
<g transform="translate(80,80)">
  <path fill="#F5F0E8" d="
M886.220093,541.000000 
	C886.248657,602.999878 886.147949,664.500244 886.370911,725.999390 
	C886.454895,749.165405 877.305725,766.153442 857.120422,778.420227 
	C752.323730,842.106018 647.827820,906.286743 543.217834,970.279907 
	C530.426392,978.104858 517.509949,985.727112 504.773071,993.639160 
	C483.208710,1007.034790 462.040863,1006.697815 440.364471,993.409241 
	C352.576324,939.590820 264.622681,886.042419 176.737991,832.381470 
	C146.875366,814.147888 117.151405,795.683716 87.144180,777.691711 
	C68.043289,766.239136 59.386517,749.933777 59.483929,727.618408 
	C59.833851,647.453491 59.968388,567.283447 59.441380,487.120239 
	C59.027225,424.123596 59.359173,361.129303 59.089985,298.134613 
	C59.063694,291.981262 59.247646,285.815369 60.443474,279.740601 
	C63.129738,266.094482 70.252289,255.406540 82.139603,248.164978 
	C111.878761,230.048386 141.701096,212.068329 171.489838,194.033112 
	C254.874985,143.548645 338.258575,93.061539 421.647552,42.583405 
	C429.344574,37.924129 437.040588,33.261314 444.798279,28.704393 
	C463.158447,17.919495 481.564026,18.230864 499.759888,28.992928 
	C523.279602,42.903831 546.691528,56.997253 570.137512,71.032753 
	C635.613525,110.228783 701.098633,149.409515 766.548340,188.649414 
	C796.557861,206.641403 826.276794,225.129974 856.536011,242.689407 
	C877.353088,254.769531 886.313049,272.680725 886.304565,296.001373 
	C886.286743,345.167938 886.283936,394.334503 886.268311,443.501068 
	C886.258057,475.834045 886.236206,508.167023 886.220093,541.000000 
M752.672058,810.123474 
	C761.901001,804.474976 771.134705,798.834167 780.358093,793.176575 
	C802.653137,779.500977 824.946167,765.822021 847.234253,752.135071 
	C855.662415,746.959351 859.051575,739.582031 859.038940,729.546997 
	C858.857178,585.056091 858.819580,440.564697 859.059265,296.073944 
	C859.081421,282.707428 854.622070,273.140442 843.034363,266.299713 
	C817.067322,250.970245 791.379578,235.168716 765.512817,219.668335 
	C692.766357,176.075714 619.973206,132.560867 547.229187,88.964127 
	C527.078552,76.887489 506.965973,64.744156 486.973114,52.409065 
	C477.602264,46.627499 468.469330,45.627079 458.853516,51.635029 
	C450.801514,56.665890 442.570892,61.409969 434.450226,66.331955 
	C366.060822,107.783012 297.659363,149.214294 229.301117,190.716721 
	C187.289627,216.223236 145.008698,241.289230 103.462608,267.557037 
	C101.855309,268.573273 99.760010,269.196228 98.960640,271.788727 
	C100.573387,272.810120 102.213074,273.898224 103.899017,274.909180 
	C183.779999,322.809906 263.672089,370.692108 343.546661,418.603516 
	C385.555573,443.801819 427.534637,469.049896 469.527161,494.275513 
	C471.503632,495.462799 473.059631,496.586304 475.774811,494.903809 
	C546.304077,451.199005 616.918335,407.631287 687.513062,364.032166 
	C698.670227,357.141541 709.804138,350.213409 720.939636,343.308289 
	C719.944519,341.027832 718.114075,340.421204 716.598511,339.512177 
	C671.161499,312.259033 625.703308,285.041199 580.259949,257.798584 
	C548.963562,239.036865 517.573975,220.426590 486.463531,201.361115 
	C476.927429,195.517090 469.013794,194.343292 458.630615,200.815872 
	C407.309418,232.807953 355.467072,263.963898 303.817688,295.429718 
	C297.756226,299.122498 291.751312,302.908142 285.811005,306.594391 
	C286.533691,308.532501 287.819122,309.065063 288.930023,309.725769 
	C298.380005,315.345825 307.918732,320.820679 317.275879,326.590393 
	C320.246857,328.422302 322.535187,328.328918 325.451263,326.518829 
	C347.110138,313.075012 368.814880,299.703979 390.582825,286.437317 
	C411.210358,273.865692 431.865875,261.336975 452.637451,249.005615 
	C465.100677,241.606613 477.961121,241.737762 490.813507,248.219009 
	C493.935364,249.793274 497.032501,251.435165 500.036530,253.221588 
	C532.686951,272.638123 565.320801,292.082581 597.949341,311.535980 
	C607.822388,317.422394 617.918640,322.981934 627.450134,329.380219 
	C637.086914,335.849213 637.089294,346.338013 628.071472,353.619476 
	C626.393677,354.974274 624.528625,356.108032 622.697815,357.260925 
	C611.982605,364.008118 601.305115,370.817383 590.516235,377.445068 
	C559.994995,396.194611 529.422119,414.860016 498.877258,433.571075 
	C481.190369,444.405609 463.403870,444.680908 445.529144,434.085632 
	C371.717712,390.333618 297.903839,346.585785 224.117493,302.791473 
	C213.373627,296.414703 202.548859,290.131470 192.171570,283.191803 
	C181.747238,276.220673 181.735046,265.774750 191.667709,258.046661 
	C194.680634,255.702454 197.997406,253.729645 201.266144,251.736206 
	C270.685394,209.400742 340.093506,167.046936 409.566284,124.799454 
	C424.793030,115.539833 439.698639,105.738205 455.500519,97.431389 
	C466.308685,91.749687 476.986481,90.994652 487.850311,97.269440 
	C496.936676,102.517570 506.262604,107.357590 515.272705,112.730064 
	C577.521057,149.847046 639.775696,186.954239 701.900574,224.277267 
	C734.746521,244.010239 767.894409,263.249207 800.189270,283.894592 
	C809.656311,289.946716 815.505310,298.474976 818.457031,309.189392 
	C820.559204,316.820251 820.860779,324.651978 820.868164,332.461700 
	C820.932800,400.947083 820.875000,469.432587 820.890686,537.918030 
	C820.902893,591.248047 820.873291,644.578491 821.066223,697.907959 
	C821.125427,714.277954 816.134583,727.168518 800.984985,735.759094 
	C781.430054,746.847900 762.491577,759.024109 743.293823,770.742310 
	C693.520447,801.123413 643.755005,831.517517 593.976562,861.890381 
	C577.763916,871.782776 561.616089,881.786682 545.259094,891.435242 
	C534.229858,897.941162 523.424561,891.750916 522.863525,878.963867 
	C522.805115,877.632996 522.846130,876.297729 522.846069,874.964478 
	C522.841797,780.803589 522.843567,686.642639 522.823975,592.481750 
	C522.822449,584.971558 523.535583,577.533508 524.725098,570.131348 
	C528.085327,549.219788 538.078613,532.740540 556.707581,521.919434 
	C564.044128,517.657898 571.173889,513.047668 578.458679,508.689270 
	C597.329773,497.398743 615.899475,485.605255 634.620605,474.062897 
	C647.667053,466.019135 660.573975,457.721405 673.904419,450.175018 
	C683.379028,444.811371 692.106812,449.726318 693.585938,460.467468 
	C693.834900,462.275726 693.947632,464.117035 693.948486,465.943146 
	C693.974548,521.606323 693.984558,577.269470 693.967346,632.932678 
	C693.966614,635.424011 693.849304,637.937073 693.512268,640.402649 
	C692.036743,651.197998 683.304932,657.104492 672.619507,654.768799 
	C663.936096,652.870667 657.792542,647.308350 652.610474,640.660950 
	C632.428894,614.772339 612.405762,588.760132 592.342529,562.779297 
	C589.275696,558.807861 586.066101,554.963440 582.002014,551.985718 
	C574.159119,546.239441 565.689331,547.358582 559.367432,554.734436 
	C554.738403,560.135193 552.795715,566.565430 551.654968,573.407104 
	C551.204712,576.107422 551.844238,578.137207 553.533447,580.281311 
	C571.784607,603.447144 589.862915,626.749390 608.167297,649.872803 
	C616.839600,660.828186 624.482422,672.682007 635.071167,682.019287 
	C653.268433,698.065979 680.502930,701.521240 699.757751,690.203613 
	C707.657715,685.560181 715.274597,680.465698 722.767090,675.171875 
	C728.734009,670.955933 731.606079,665.246155 731.593018,658.173523 
	C731.419189,563.851440 732.065430,469.527710 731.013794,375.207764 
	C730.996094,373.623871 731.495911,371.874451 730.151978,370.344025 
	C727.182068,370.470886 724.995605,372.389832 722.638672,373.843536 
	C664.074219,409.963715 605.535889,446.126282 546.962036,482.231110 
	C528.258728,493.759796 509.489136,505.181580 490.696289,516.563782 
	C487.363495,518.582336 486.080261,521.083313 486.082642,525.093872 
	C486.170685,672.084839 486.136902,819.075806 486.160919,966.066833 
	C486.161224,967.958374 485.508667,970.041138 487.349243,972.257507 
	C575.593384,918.340759 663.827393,864.430176 752.672058,810.123474 
M459.673218,686.500061 
	C459.680115,633.003235 459.644257,579.506226 459.777893,526.009705 
	C459.788208,521.879578 458.668182,519.166199 455.054688,517.038086 
	C450.906403,514.594849 446.786438,512.095581 442.652435,509.622955 
	C406.619995,488.071259 370.709290,466.316223 334.716309,444.698273 
	C253.869644,396.140594 172.999512,347.622009 92.112938,299.130890 
	C90.531525,298.182831 89.120804,296.351227 86.375374,297.317474 
	C86.375374,298.897369 86.375359,300.538605 86.375381,302.179871 
	C86.376999,444.672516 86.411743,587.165161 86.311203,729.657715 
	C86.303932,739.960327 90.088615,747.517029 98.961533,752.877808 
	C115.929916,763.129517 132.685257,773.733032 149.612167,784.054260 
	C243.501694,841.303162 337.415741,898.511780 431.322845,955.731873 
	C440.379639,961.250488 449.445984,966.753357 459.672546,972.971619 
	C459.672546,877.036377 459.672546,782.268250 459.673218,686.500061 
M603.541931,239.922592 
	C620.523132,250.154205 637.500000,260.393036 654.486450,270.615875 
	C683.605713,288.140411 712.731934,305.653381 741.853149,323.174744 
	C750.024780,328.091400 756.376770,334.532684 757.885925,344.343292 
	C758.589355,348.916168 758.400940,353.645477 758.403625,358.303986 
	C758.435059,413.129272 758.191589,467.955872 758.499512,522.779419 
	C758.760620,569.261536 759.634583,615.741333 758.263245,662.217712 
	C757.827393,676.989563 752.083191,688.983276 739.158447,696.955322 
	C733.912109,700.191284 728.681274,703.452881 723.410706,706.648926 
	C666.859009,740.942932 610.308289,775.238586 553.720947,809.473877 
	C550.972961,811.136414 549.886353,813.139954 549.930969,816.363892 
	C550.096680,828.359985 549.988892,840.359558 550.052612,852.357483 
	C550.059998,853.745667 549.516968,855.354553 551.095947,856.689209 
	C552.925781,855.601379 554.777710,854.528259 556.602966,853.411377 
	C596.536133,828.976318 636.476868,804.553589 676.394165,780.092529 
	C712.901855,757.720825 749.353760,735.257812 785.908752,712.963867 
	C791.476440,709.568237 793.849915,705.211487 793.789734,698.614624 
	C793.552490,672.620667 793.715393,646.623169 793.717529,620.626953 
	C793.725708,522.807922 793.652039,424.988770 793.847900,327.170135 
	C793.868408,316.915863 789.925476,309.581177 781.624146,304.152222 
	C778.695862,302.237183 775.828491,300.220856 772.831055,298.421143 
	C742.123169,279.983673 711.415405,261.545807 680.666809,243.176392 
	C614.591919,203.702850 548.434204,164.367355 482.484070,124.686623 
	C474.901489,120.124352 468.830109,120.124191 461.358185,124.704582 
	C385.797272,171.024658 310.084076,217.096390 234.448624,263.295074 
	C230.807480,265.519104 226.847565,267.351898 223.325577,270.851715 
	C225.356537,272.177246 227.087418,273.394958 228.900299,274.475006 
	C237.201416,279.420502 245.639694,284.148071 253.786057,289.334991 
	C257.122528,291.459412 259.480469,291.166351 262.750183,289.165985 
	C324.995056,251.085037 387.309174,213.117096 449.646637,175.187790 
	C454.758942,172.077209 460.024445,169.162857 465.938965,167.721481 
	C476.657562,165.109344 485.502625,169.889832 494.169678,175.018799 
	C530.444519,196.485336 566.669434,218.036224 603.541931,239.922592 
M382.353088,364.850769 
	C384.372925,366.145386 385.836029,364.684174 387.342499,363.765442 
	C393.455566,360.037323 399.482086,356.165222 405.635529,352.505859 
	C421.946930,342.805756 437.615326,332.035339 454.422028,323.161774 
	C466.126831,316.981903 477.931091,316.584320 489.799713,322.706940 
	C492.905609,324.309143 496.062744,325.834045 499.057190,327.626892 
	C518.056274,339.002014 537.053101,350.381989 555.950989,361.923706 
	C558.914734,363.733856 561.210388,363.832855 564.144958,361.974670 
	C573.146423,356.274719 582.312195,350.834839 591.371582,345.225220 
	C592.709290,344.396881 594.430054,343.829773 594.934998,341.732758 
	C593.859009,341.018433 592.800232,340.256195 591.686584,339.585114 
	C577.710571,331.163391 563.732544,322.745209 549.743530,314.345123 
	C527.476562,300.974335 505.144043,287.711456 482.960663,274.203583 
	C475.407867,269.604523 468.281708,269.627197 461.013855,274.468872 
	C459.768890,275.298248 458.406586,275.949768 457.145111,276.756317 
	C422.632141,298.822693 387.509338,319.896057 352.460480,341.090240 
	C351.113251,341.904877 349.361298,342.395386 348.971588,344.585449 
	C359.242493,352.254761 370.855804,357.799774 382.353088,364.850769 
M568.089111,769.539490 
	C595.041870,753.222473 621.994690,736.905396 649.974976,719.966309 
	C628.642090,713.918457 613.775696,701.359253 601.431458,685.200684 
	C591.928833,672.761902 582.043457,660.615662 572.336182,648.333069 
	C565.252930,639.370605 558.182434,630.398071 550.530212,620.699890 
	C550.530212,674.209900 550.530212,726.637207 550.530212,780.225098 
	C556.770874,776.427917 562.120117,773.173157 568.089111,769.539490 
M450.834686,356.394897 
	C437.545746,364.533691 424.256805,372.672516 410.507568,381.093231 
	C412.012329,382.169312 412.880554,382.895721 413.842834,383.462585 
	C428.758636,392.249969 443.926483,400.639160 458.529083,409.918304 
	C468.592682,416.313141 477.567139,415.748291 487.292938,409.511627 
	C501.581543,400.349030 516.211731,391.719269 530.690430,382.852844 
	C531.648865,382.265930 532.855530,381.875732 532.953491,380.433807 
	C532.390747,379.097382 531.092651,378.588501 529.979187,377.908417 
	C514.921875,368.711700 499.867065,359.510651 484.770081,350.379395 
	C482.501556,349.007324 480.016876,347.994232 477.640778,346.797943 
	C474.969269,345.452911 472.362823,345.471558 469.470215,346.408905 
	C462.865845,348.548981 457.320374,352.556976 450.834686,356.394897 
M612.621643,544.898499 
	C630.305542,567.576782 647.989441,590.255127 666.508179,614.004028 
	C666.508179,570.384827 666.508179,528.492554 666.508179,485.824768 
	C643.281189,500.262543 620.621155,514.347900 597.476379,528.734558 
	C602.884460,534.023010 608.119385,538.651733 612.621643,544.898499 
z"/>
  <path fill="#F5F0E8" d="
M183.438095,759.594971 
	C170.140793,751.578003 157.171066,743.724792 144.169174,735.925232 
	C130.853867,727.937683 124.694885,716.368713 124.721138,700.699097 
	C124.891190,599.202332 124.785362,497.705170 124.782875,396.208130 
	C124.782417,377.601959 134.841263,371.835205 150.983734,381.387054 
	C222.249802,423.556580 293.453949,465.830719 364.716675,508.005920 
	C375.316498,514.279175 386.450623,519.770996 395.320343,528.544861 
	C412.902222,545.936707 421.815186,567.408325 421.914246,591.825500 
	C422.298828,686.654724 422.136963,781.486267 422.134796,876.316956 
	C422.134460,891.147339 413.123413,896.796997 399.652679,890.543091 
	C397.694458,889.634033 395.821777,888.521179 393.974182,887.396301 
	C376.469666,876.738403 359.002258,866.019409 341.480286,855.390381 
	C288.914612,823.503540 236.329224,791.649353 183.438095,759.594971 
M313.039886,806.426270 
	C339.960907,822.787537 366.881897,839.148865 394.349518,855.842346 
	C394.522217,853.616150 394.689270,852.467773 394.689301,851.319397 
	C394.692169,764.497437 394.991425,677.673462 394.442688,590.854919 
	C394.314423,570.562683 385.602600,553.487183 367.674713,542.179138 
	C350.212921,531.165100 332.585571,520.437195 314.673065,510.164856 
	C300.946014,502.292755 287.311096,494.243866 273.868988,485.897186 
	C265.647095,480.791962 256.917511,479.233704 247.555771,480.323181 
	C236.701187,481.586365 229.067657,488.214417 221.088577,495.706238 
	C224.500031,497.848175 226.994431,499.473541 229.544785,501.005707 
	C243.248810,509.238861 256.993591,517.404419 270.673431,525.677429 
	C289.917389,537.315308 309.240570,548.829224 328.295197,560.770691 
	C343.080933,570.036926 352.283020,583.508423 356.424805,600.516907 
	C359.323669,612.421265 360.268555,624.522949 360.192566,636.678101 
	C359.955078,674.662231 361.087219,712.654541 359.406647,750.632263 
	C358.871033,762.735352 351.736633,771.289001 339.895813,772.794067 
	C334.007080,773.542603 328.750153,771.270630 323.838226,768.317627 
	C310.131073,760.076904 296.470795,751.758118 282.809570,743.441345 
	C257.480804,728.021545 232.133469,712.631836 206.859848,697.122070 
	C197.889603,691.617310 192.379059,683.416443 190.074814,673.233093 
	C188.532974,666.419067 187.706787,659.478821 187.711884,652.436218 
	C187.744644,607.108826 187.708786,561.781494 187.666000,516.454102 
	C187.642548,491.610687 199.252701,473.682587 220.259201,461.264374 
	C221.918213,460.283600 223.980301,459.806976 225.465393,457.224457 
	C201.332214,442.918365 177.276718,428.658325 153.199020,414.385132 
	C151.702194,416.922821 151.960846,418.626831 151.960434,420.261658 
	C151.936951,512.749390 151.996338,605.237244 151.810608,697.724609 
	C151.795074,705.457092 154.481262,710.307434 161.127350,714.308533 
	C211.654175,744.726746 262.012360,775.425110 313.039886,806.426270 
M215.891510,666.364258 
	C217.849472,672.250366 222.929276,675.179382 227.682053,678.109680 
	C261.139771,698.737244 294.700073,719.198547 328.251068,739.674500 
	C329.417908,740.386597 330.518494,741.834412 332.457458,740.710876 
	C332.457458,728.005737 332.443817,715.207031 332.465424,702.408325 
	C332.472260,698.356140 329.977234,696.231201 326.808594,694.336914 
	C307.796295,682.970459 289.135590,670.973267 269.750305,660.288269 
	C256.792572,653.146118 250.719574,643.360107 251.807037,628.748108 
	C252.152267,624.109497 251.849213,619.422791 251.849075,614.758118 
	C251.848434,593.933533 251.707047,573.107117 251.961273,552.285645 
	C252.017960,547.643799 250.419281,545.036377 246.505722,542.777466 
	C236.988525,537.284241 227.722809,531.356323 218.322601,525.658142 
	C217.274689,525.022949 216.373276,523.706543 214.359665,524.549377 
	C214.359665,526.201050 214.360306,528.002563 214.359589,529.804016 
	C214.343536,570.287048 214.344315,610.770081 214.288757,651.253052 
	C214.282104,656.098999 214.409744,660.905396 215.891510,666.364258 
M332.712463,634.504944 
	C332.703674,631.005737 332.764008,627.504700 332.674561,624.007568 
	C332.199371,605.431396 326.507843,589.858337 308.971466,580.327026 
	C298.945190,574.877563 289.452759,568.445984 279.669586,562.425598 
	C279.263885,563.241516 279.002228,563.521973 279.002472,563.802185 
	C279.020172,585.962891 279.077698,608.123535 279.067902,630.284241 
	C279.066803,632.741150 280.089478,634.255920 282.145844,635.515991 
	C297.485901,644.915771 312.771423,654.404541 328.097992,663.826599 
	C329.296967,664.563660 330.478180,665.790649 332.711670,664.631042 
	C332.711670,655.094177 332.711670,645.298584 332.712463,634.504944 
z"/>
</g>
</svg>