<svg xmlns="http://www.w3.org/2000/svg" viewBox="0 0 1064 406" width="1064" height="406">
<rect width="1064" height="406" fill="#F5F0E8"/>
<g transform="translate(60,278.68)">
  <path fill="#241E29" d="M94.92 1.40L94.92 1.40Q72.52 1.40 54.88-8.68Q37.24-18.76 27.16-36.40Q17.08-54.04 17.08-76.44L17.08-76.44Q17.08-99.12 27.16-116.76Q37.24-134.40 54.88-144.48Q72.52-154.56 94.92-154.56L94.92-154.56Q117.32-154.56 134.82-144.48Q152.32-134.40 162.40-116.76Q172.48-99.12 172.76-76.44L172.76-76.44Q172.76-54.04 162.54-36.40Q152.32-18.76 134.82-8.68Q117.32 1.40 94.92 1.40ZM94.92-18.20L94.92-18.20Q111.16-18.20 124.04-25.76Q136.92-33.32 144.20-46.48Q151.48-59.64 151.48-76.44L151.48-76.44Q151.48-93.24 144.20-106.54Q136.92-119.84 124.04-127.40Q111.16-134.96 94.92-134.96L94.92-134.96Q78.68-134.96 65.80-127.40Q52.92-119.84 45.50-106.54Q38.08-93.24 38.08-76.44L38.08-76.44Q38.08-59.64 45.50-46.48Q52.92-33.32 65.80-25.76Q78.68-18.20 94.92-18.20Z M357.28 0L357.28 0Q352.52 0 349.44-3.08Q346.36-6.16 346.36-10.64L346.36-10.64L346.36-83.44Q346.36-100.80 339.78-112.00Q333.20-123.20 321.86-128.80Q310.52-134.40 296.24-134.40L296.24-134.40Q282.52-134.40 271.46-129.08Q260.40-123.76 253.96-114.52Q247.52-105.28 247.52-93.52L247.52-93.52L232.12-93.52Q232.68-111.16 241.64-125.02Q250.60-138.88 265.44-146.86Q280.28-154.84 298.48-154.84L298.48-154.84Q318.36-154.84 334.04-146.58Q349.72-138.32 358.82-122.36Q367.92-106.40 367.92-83.44L367.92-83.44L367.92-10.64Q367.92-6.16 364.84-3.08Q361.76 0 357.28 0ZM236.88 0L236.88 0Q231.84 0 228.90-2.94Q225.96-5.88 225.96-10.64L225.96-10.64L225.96-142.24Q225.96-147.28 228.90-150.22Q231.84-153.16 236.88-153.16L236.88-153.16Q241.64-153.16 244.58-150.22Q247.52-147.28 247.52-142.24L247.52-142.24L247.52-10.64Q247.52-5.88 244.58-2.94Q241.64 0 236.88 0Z M442.12 0L442.12 0Q437.08 0 434.14-2.94Q431.20-5.88 431.20-10.92L431.20-10.92L431.20-142.24Q431.20-147.28 434.14-150.22Q437.08-153.16 442.12-153.16L442.12-153.16Q446.88-153.16 449.82-150.22Q452.76-147.28 452.76-142.24L452.76-142.24L452.76-10.92Q452.76-5.88 449.82-2.94Q446.88 0 442.12 0ZM441.84-182.28L441.84-182.28Q435.68-182.28 431.20-186.76Q426.72-191.24 426.72-197.68L426.72-197.68Q426.72-204.68 431.34-208.74Q435.96-212.80 442.12-212.80L442.12-212.80Q448.00-212.80 452.62-208.74Q457.24-204.68 457.24-197.68L457.24-197.68Q457.24-191.24 452.76-186.76Q448.28-182.28 441.84-182.28Z M588.28 1.40L588.28 1.40Q565.60 1.40 548.10-8.54Q530.60-18.48 520.66-36.12Q510.72-53.76 510.72-76.44L510.72-76.44Q510.72-99.40 520.10-116.90Q529.48-134.40 546-144.48Q562.52-154.56 584.08-154.56L584.08-154.56Q605.36-154.56 621.18-144.90Q637-135.24 645.68-118.16Q654.36-101.08 654.36-79.24L654.36-79.24Q654.36-74.76 651.56-72.10Q648.76-69.44 644.28-69.44L644.28-69.44L525.28-69.44L525.28-87.36L646.52-87.36L634.48-78.68Q634.76-94.92 628.60-107.80Q622.44-120.68 611.10-127.96Q599.76-135.24 584.08-135.24L584.08-135.24Q568.12-135.24 556.08-127.68Q544.04-120.12 537.46-106.82Q530.88-93.52 530.88-76.44L530.88-76.44Q530.88-59.36 538.30-46.20Q545.72-33.04 558.60-25.48Q571.48-17.92 588.28-17.92L588.28-17.92Q598.36-17.92 608.58-21.42Q618.80-24.92 624.96-30.24L624.96-30.24Q628.04-32.76 631.96-32.90Q635.88-33.04 638.68-30.80L638.68-30.80Q642.32-27.44 642.46-23.52Q642.60-19.60 639.24-16.80L639.24-16.80Q630-8.96 615.72-3.78Q601.44 1.40 588.28 1.40Z M721 0L721 0Q716.80 0 713.72-2.94Q710.64-5.88 710.64-10.92L710.64-10.92L710.64-152.88Q710.64-172.48 717.36-187.32Q724.08-202.16 737.24-210.42Q750.40-218.68 769.44-218.68L769.44-218.68Q774.20-218.68 777.28-215.88Q780.36-213.08 780.36-208.88L780.36-208.88Q780.36-204.68 777.28-201.88Q774.20-199.08 769.44-199.08L769.44-199.08Q756.84-199.08 748.58-193.34Q740.32-187.60 736.26-177.38Q732.20-167.16 732.20-154.00L732.20-154.00L732.20-10.92Q732.20-5.88 729.26-2.94Q726.32 0 721 0ZM765.80-128.80L692.72-128.80Q688.24-128.80 685.58-131.46Q682.92-134.12 682.92-138.04L682.92-138.04Q682.92-142.24 685.58-144.90Q688.24-147.56 692.72-147.56L692.72-147.56L765.80-147.56Q770.28-147.56 772.94-144.90Q775.60-142.24 775.60-138.04L775.60-138.04Q775.60-134.12 772.94-131.46Q770.28-128.80 765.80-128.80L765.80-128.80Z M841.96 66.64L841.96 66.64Q839.72 66.64 836.92 65.52L836.92 65.52Q827.40 61.32 831.60 52.08L831.60 52.08L922.04-147.28Q926.24-156.24 935.48-152.32L935.48-152.32Q945-148.40 940.80-139.16L940.80-139.16L850.08 60.20Q847.28 66.64 841.96 66.64ZM873.04-4.76L873.04-4.76Q868.84-2.80 865.20-4.06Q861.56-5.32 859.32-9.52L859.32-9.52L796.88-138.88Q794.92-143.08 796.32-146.72Q797.72-150.36 801.92-152.32L801.92-152.32Q806.12-154.28 809.76-153.02Q813.40-151.76 815.36-147.56L815.36-147.56L876.68-18.20Q878.92-14.00 878.08-10.36Q877.24-6.72 873.04-4.76Z"/>
</g>
</svg>